<svg width="1280" height="225" viewBox="0 0 1280 225" fill="none" xmlns="http://www.w3.org/2000/svg">
<g clip-path="url(#clip0_3409_5017)">
<path d="M0 20C0 8.9543 8.95431 0 20 0H1260C1271.05 0 1280 8.95431 1280 20V205C1280 216.046 1271.05 225 1260 225H20C8.95431 225 0 216.046 0 205V20Z" fill="#0F1832"/>
<g filter="url(#filter0_f_3409_5017)">
<path d="M1062.46 53.6321C670.717 -179.405 333.235 -43.4902 213.463 53.5969C183.817 175.462 464.053 266.45 607.877 296.712C922.634 312.784 1454.21 286.669 1062.46 53.6321Z" fill="#0231FF" fill-opacity="0.7"/>
</g>
<g filter="url(#filter1_f_3409_5017)">
<path d="M922.306 350.119C777.53 493.098 831.106 686.374 875.992 765.14C875.992 894.685 1324.56 863.498 1504.67 765.14C1684.78 666.783 1609.31 521.645 1615.31 350.119C1620.12 212.898 1423.48 168.198 1324.56 163C1250.8 165.799 1067.08 207.141 922.306 350.119Z" fill="#6C01DB"/>
</g>
<path d="M-863.165 -544.181C-859.655 -577.9 -823.242 -597.454 -793.194 -581.753L1716.64 729.65C1750.79 747.489 1751.06 796.256 1717.12 814.481L-1085.92 2319.65C-1119.86 2337.88 -1160.36 2310.71 -1156.37 2272.39L-863.165 -544.181Z" fill="#6F5AC8" fill-opacity="0.1"/>
<path d="M-863.165 -624.181C-859.655 -657.9 -823.242 -677.454 -793.194 -661.753L1716.64 649.65C1750.79 667.489 1751.06 716.256 1717.12 734.481L-1085.92 2239.65C-1119.86 2257.88 -1160.36 2230.71 -1156.37 2192.39L-863.165 -624.181Z" fill="#6F5AC8" fill-opacity="0.1"/>
<path d="M-863.165 -700.181C-859.655 -733.9 -823.242 -753.454 -793.194 -737.753L1716.64 573.65C1750.79 591.489 1751.06 640.256 1717.12 658.481L-1085.92 2163.65C-1119.86 2181.88 -1160.36 2154.71 -1156.37 2116.39L-863.165 -700.181Z" fill="#6F5AC8" fill-opacity="0.1"/>
<path d="M-863.165 -775.181C-859.655 -808.9 -823.242 -828.454 -793.194 -812.753L1716.64 498.65C1750.79 516.489 1751.06 565.256 1717.12 583.481L-1085.92 2088.65C-1119.86 2106.88 -1160.36 2079.71 -1156.37 2041.39L-863.165 -775.181Z" fill="#6F5AC8" fill-opacity="0.1"/>
<path d="M-863.165 -850.181C-859.655 -883.9 -823.242 -903.454 -793.194 -887.753L1716.64 423.65C1750.79 441.489 1751.06 490.256 1717.12 508.481L-1085.92 2013.65C-1119.86 2031.88 -1160.36 2004.71 -1156.37 1966.39L-863.165 -850.181Z" fill="#6F5AC8" fill-opacity="0.1"/>
<path d="M-724.802 -850.181C-721.291 -883.9 -684.878 -903.454 -654.831 -887.753L1855.01 423.65C1889.15 441.489 1889.42 490.256 1855.49 508.481L-947.554 2013.65C-981.493 2031.88 -1021.99 2004.71 -1018 1966.39L-724.802 -850.181Z" fill="#6F5AC8" fill-opacity="0.1"/>
<g filter="url(#filter2_f_3409_5017)">
<circle cx="-183" cy="-183" r="367" fill="#031150"/>
</g>
<g clip-path="url(#clip1_3409_5017)">
<path d="M48 57C48 50.3726 53.3726 45 60 45H116C122.627 45 128 50.3726 128 57V113C128 119.627 122.627 125 116 125H60C53.3726 125 48 119.627 48 113V57Z" fill="white"/>
<g clip-path="url(#clip2_3409_5017)">
<rect width="80" height="80" transform="translate(48 45)" fill="#512BD4"/>
<g clip-path="url(#clip3_3409_5017)">
<path d="M128 45H48V125H128V45Z" fill="#512BD4"/>
<path d="M62.259 96.11C61.6934 96.11 61.2126 95.9216 60.8166 95.5446C60.4206 95.1579 60.2227 94.6988 60.2227 94.1672C60.2227 93.6258 60.4206 93.162 60.8166 92.7753C61.2126 92.3886 61.6934 92.1953 62.259 92.1953C62.8341 92.1953 63.3196 92.3886 63.7156 92.7753C64.121 93.162 64.3237 93.6258 64.3237 94.1672C64.3237 94.6988 64.121 95.1579 63.7156 95.5446C63.3196 95.9216 62.8341 96.11 62.259 96.11Z" fill="white"/>
<path d="M84.8719 95.7921H81.1951L71.5082 80.5098C71.2632 80.1232 71.0603 79.7219 70.9002 79.3063H70.8153C70.8907 79.7511 70.9284 80.7032 70.9284 82.1626V95.7921H67.6758V75H71.593L80.9547 89.9198C81.3507 90.5386 81.6053 90.9639 81.7184 91.1958H81.7749C81.6807 90.6449 81.6335 89.7121 81.6335 88.3974V75H84.8719V95.7921Z" fill="white"/>
<path d="M100.71 95.7921H89.3263V75H100.258V77.9289H92.6921V83.8156H99.6638V86.73H92.6921V92.8777H100.71V95.7921Z" fill="white"/>
<path d="M116.889 77.9289H111.063V95.7921H107.697V77.9289H101.885V75H116.889V77.9289Z" fill="white"/>
</g>
</g>
</g>
<path d="M50.8764 147.818H55.6705L64.0057 168.17H64.3125L72.6477 147.818H77.4418V174H73.6832V155.054H73.4403L65.7188 173.962H62.5994L54.8778 155.041H54.6349V174H50.8764V147.818ZM91.1495 174.396C89.3086 174.396 87.7021 173.974 86.3299 173.131C84.9577 172.287 83.8924 171.107 83.1339 169.589C82.3754 168.072 81.9961 166.3 81.9961 164.271C81.9961 162.234 82.3754 160.453 83.1339 158.928C83.8924 157.402 84.9577 156.217 86.3299 155.374C87.7021 154.53 89.3086 154.108 91.1495 154.108C92.9904 154.108 94.5969 154.53 95.9691 155.374C97.3413 156.217 98.4066 157.402 99.1651 158.928C99.9237 160.453 100.303 162.234 100.303 164.271C100.303 166.3 99.9237 168.072 99.1651 169.589C98.4066 171.107 97.3413 172.287 95.9691 173.131C94.5969 173.974 92.9904 174.396 91.1495 174.396ZM91.1623 171.188C92.3555 171.188 93.3441 170.872 94.1282 170.241C94.9123 169.611 95.4918 168.771 95.8668 167.723C96.2504 166.675 96.4421 165.52 96.4421 164.259C96.4421 163.006 96.2504 161.855 95.8668 160.807C95.4918 159.75 94.9123 158.902 94.1282 158.263C93.3441 157.624 92.3555 157.304 91.1623 157.304C89.9606 157.304 88.9634 157.624 88.1708 158.263C87.3867 158.902 86.8029 159.75 86.4194 160.807C86.0444 161.855 85.8569 163.006 85.8569 164.259C85.8569 165.52 86.0444 166.675 86.4194 167.723C86.8029 168.771 87.3867 169.611 88.1708 170.241C88.9634 170.872 89.9606 171.188 91.1623 171.188ZM108.392 162.341V174H104.57V154.364H108.239V157.56H108.482C108.933 156.52 109.641 155.685 110.604 155.054C111.575 154.423 112.798 154.108 114.273 154.108C115.611 154.108 116.783 154.389 117.788 154.952C118.794 155.506 119.574 156.332 120.128 157.432C120.682 158.531 120.959 159.891 120.959 161.51V174H117.136V161.97C117.136 160.547 116.766 159.435 116.024 158.634C115.283 157.824 114.264 157.419 112.969 157.419C112.082 157.419 111.294 157.611 110.604 157.994C109.922 158.378 109.381 158.94 108.98 159.682C108.588 160.415 108.392 161.301 108.392 162.341ZM134.357 174.396C132.516 174.396 130.909 173.974 129.537 173.131C128.165 172.287 127.099 171.107 126.341 169.589C125.582 168.072 125.203 166.3 125.203 164.271C125.203 162.234 125.582 160.453 126.341 158.928C127.099 157.402 128.165 156.217 129.537 155.374C130.909 154.53 132.516 154.108 134.357 154.108C136.197 154.108 137.804 154.53 139.176 155.374C140.548 156.217 141.614 157.402 142.372 158.928C143.131 160.453 143.51 162.234 143.51 164.271C143.51 166.3 143.131 168.072 142.372 169.589C141.614 171.107 140.548 172.287 139.176 173.131C137.804 173.974 136.197 174.396 134.357 174.396ZM134.369 171.188C135.563 171.188 136.551 170.872 137.335 170.241C138.119 169.611 138.699 168.771 139.074 167.723C139.457 166.675 139.649 165.52 139.649 164.259C139.649 163.006 139.457 161.855 139.074 160.807C138.699 159.75 138.119 158.902 137.335 158.263C136.551 157.624 135.563 157.304 134.369 157.304C133.168 157.304 132.17 157.624 131.378 158.263C130.594 158.902 130.01 159.75 129.626 160.807C129.251 161.855 129.064 163.006 129.064 164.259C129.064 165.52 129.251 166.675 129.626 167.723C130.01 168.771 130.594 169.611 131.378 170.241C132.17 170.872 133.168 171.188 134.369 171.188ZM169.829 156.332H165.841C165.687 155.48 165.402 154.73 164.984 154.082C164.566 153.435 164.055 152.885 163.45 152.433C162.845 151.982 162.167 151.641 161.417 151.411C160.676 151.18 159.887 151.065 159.052 151.065C157.544 151.065 156.193 151.445 155 152.203C153.815 152.962 152.877 154.074 152.187 155.54C151.505 157.006 151.164 158.795 151.164 160.909C151.164 163.04 151.505 164.838 152.187 166.304C152.877 167.77 153.819 168.878 155.012 169.628C156.206 170.378 157.548 170.753 159.039 170.753C159.866 170.753 160.65 170.642 161.392 170.42C162.142 170.19 162.819 169.854 163.424 169.411C164.029 168.967 164.541 168.426 164.958 167.787C165.385 167.139 165.679 166.398 165.841 165.562L169.829 165.575C169.616 166.862 169.203 168.047 168.589 169.129C167.984 170.203 167.204 171.132 166.25 171.916C165.304 172.692 164.221 173.293 163.002 173.719C161.784 174.145 160.454 174.358 159.014 174.358C156.747 174.358 154.727 173.821 152.954 172.747C151.181 171.665 149.784 170.118 148.761 168.107C147.747 166.095 147.24 163.696 147.24 160.909C147.24 158.114 147.751 155.714 148.774 153.712C149.797 151.7 151.194 150.158 152.967 149.084C154.74 148.001 156.755 147.46 159.014 147.46C160.403 147.46 161.699 147.661 162.9 148.061C164.11 148.453 165.197 149.033 166.16 149.8C167.123 150.558 167.92 151.487 168.551 152.587C169.181 153.678 169.608 154.926 169.829 156.332ZM178.072 147.818V174H174.249V147.818H178.072ZM191.485 174.396C189.645 174.396 188.038 173.974 186.666 173.131C185.294 172.287 184.228 171.107 183.47 169.589C182.711 168.072 182.332 166.3 182.332 164.271C182.332 162.234 182.711 160.453 183.47 158.928C184.228 157.402 185.294 156.217 186.666 155.374C188.038 154.53 189.645 154.108 191.485 154.108C193.326 154.108 194.933 154.53 196.305 155.374C197.677 156.217 198.743 157.402 199.501 158.928C200.26 160.453 200.639 162.234 200.639 164.271C200.639 166.3 200.26 168.072 199.501 169.589C198.743 171.107 197.677 172.287 196.305 173.131C194.933 173.974 193.326 174.396 191.485 174.396ZM191.498 171.188C192.691 171.188 193.68 170.872 194.464 170.241C195.248 169.611 195.828 168.771 196.203 167.723C196.586 166.675 196.778 165.52 196.778 164.259C196.778 163.006 196.586 161.855 196.203 160.807C195.828 159.75 195.248 158.902 194.464 158.263C193.68 157.624 192.691 157.304 191.498 157.304C190.297 157.304 189.299 157.624 188.507 158.263C187.723 158.902 187.139 159.75 186.755 160.807C186.38 161.855 186.193 163.006 186.193 164.259C186.193 165.52 186.38 166.675 186.755 167.723C187.139 168.771 187.723 169.611 188.507 170.241C189.299 170.872 190.297 171.188 191.498 171.188ZM217.344 165.857V154.364H221.18V174H217.421V170.599H217.217C216.765 171.648 216.04 172.521 215.043 173.22C214.055 173.911 212.823 174.256 211.349 174.256C210.087 174.256 208.971 173.979 207.999 173.425C207.036 172.862 206.278 172.031 205.724 170.932C205.178 169.832 204.906 168.473 204.906 166.854V154.364H208.728V166.393C208.728 167.732 209.099 168.797 209.84 169.589C210.582 170.382 211.545 170.778 212.729 170.778C213.445 170.778 214.157 170.599 214.864 170.241C215.58 169.884 216.173 169.342 216.641 168.618C217.119 167.893 217.353 166.973 217.344 165.857ZM233.667 174.384C232.081 174.384 230.667 173.979 229.422 173.169C228.186 172.351 227.215 171.187 226.507 169.679C225.809 168.162 225.459 166.342 225.459 164.22C225.459 162.098 225.813 160.283 226.52 158.774C227.236 157.266 228.216 156.111 229.461 155.31C230.705 154.509 232.115 154.108 233.692 154.108C234.911 154.108 235.891 154.312 236.632 154.722C237.382 155.122 237.962 155.591 238.371 156.128C238.789 156.665 239.113 157.138 239.343 157.547H239.573V147.818H243.395V174H239.662V170.945H239.343C239.113 171.362 238.78 171.839 238.346 172.376C237.919 172.913 237.331 173.382 236.581 173.783C235.831 174.183 234.86 174.384 233.667 174.384ZM234.51 171.124C235.61 171.124 236.539 170.834 237.297 170.254C238.064 169.666 238.644 168.852 239.036 167.812C239.436 166.773 239.637 165.562 239.637 164.182C239.637 162.818 239.441 161.625 239.049 160.602C238.657 159.58 238.081 158.783 237.323 158.212C236.564 157.641 235.627 157.355 234.51 157.355C233.36 157.355 232.401 157.653 231.634 158.25C230.867 158.847 230.287 159.661 229.895 160.692C229.512 161.723 229.32 162.886 229.32 164.182C229.32 165.494 229.516 166.675 229.908 167.723C230.3 168.771 230.88 169.602 231.647 170.216C232.422 170.821 233.377 171.124 234.51 171.124ZM258.685 174V147.818H268.273C270.131 147.818 271.669 148.125 272.888 148.739C274.107 149.344 275.019 150.166 275.624 151.206C276.229 152.237 276.532 153.401 276.532 154.696C276.532 155.787 276.331 156.707 275.931 157.457C275.53 158.199 274.993 158.795 274.32 159.247C273.655 159.69 272.922 160.014 272.121 160.219V160.474C272.99 160.517 273.838 160.798 274.665 161.318C275.5 161.83 276.191 162.558 276.736 163.504C277.282 164.45 277.554 165.601 277.554 166.956C277.554 168.294 277.239 169.496 276.608 170.561C275.986 171.618 275.023 172.457 273.719 173.08C272.415 173.693 270.749 174 268.721 174H258.685ZM262.635 170.612H268.337C270.229 170.612 271.584 170.246 272.402 169.513C273.221 168.78 273.63 167.864 273.63 166.764C273.63 165.937 273.421 165.179 273.003 164.489C272.586 163.798 271.989 163.249 271.213 162.839C270.446 162.43 269.534 162.226 268.478 162.226H262.635V170.612ZM262.635 159.145H267.928C268.814 159.145 269.611 158.974 270.319 158.634C271.034 158.293 271.601 157.815 272.019 157.202C272.445 156.58 272.658 155.847 272.658 155.003C272.658 153.92 272.279 153.013 271.52 152.28C270.762 151.547 269.598 151.18 268.03 151.18H262.635V159.145ZM287.647 174.435C286.403 174.435 285.278 174.205 284.272 173.744C283.267 173.276 282.47 172.598 281.882 171.712C281.302 170.825 281.012 169.739 281.012 168.452C281.012 167.344 281.225 166.432 281.652 165.716C282.078 165 282.653 164.433 283.377 164.016C284.102 163.598 284.912 163.283 285.806 163.07C286.701 162.857 287.613 162.695 288.542 162.584C289.718 162.447 290.673 162.337 291.406 162.251C292.139 162.158 292.672 162.009 293.004 161.804C293.336 161.599 293.502 161.267 293.502 160.807V160.717C293.502 159.601 293.187 158.736 292.556 158.122C291.934 157.509 291.005 157.202 289.77 157.202C288.483 157.202 287.468 157.487 286.727 158.058C285.994 158.621 285.487 159.247 285.206 159.938L281.613 159.119C282.039 157.926 282.662 156.963 283.48 156.23C284.306 155.489 285.257 154.952 286.331 154.619C287.404 154.278 288.534 154.108 289.718 154.108C290.502 154.108 291.333 154.202 292.211 154.389C293.098 154.568 293.924 154.901 294.691 155.386C295.467 155.872 296.102 156.567 296.596 157.47C297.091 158.365 297.338 159.528 297.338 160.96V174H293.605V171.315H293.451C293.204 171.81 292.833 172.295 292.339 172.773C291.845 173.25 291.21 173.646 290.434 173.962C289.659 174.277 288.73 174.435 287.647 174.435ZM288.478 171.366C289.535 171.366 290.439 171.158 291.189 170.74C291.947 170.322 292.522 169.777 292.914 169.104C293.315 168.422 293.515 167.693 293.515 166.918V164.386C293.379 164.523 293.115 164.651 292.723 164.77C292.339 164.881 291.9 164.979 291.406 165.064C290.912 165.141 290.43 165.213 289.961 165.281C289.493 165.341 289.1 165.392 288.785 165.435C288.044 165.528 287.366 165.686 286.752 165.908C286.147 166.129 285.662 166.449 285.295 166.866C284.937 167.276 284.758 167.821 284.758 168.503C284.758 169.449 285.108 170.165 285.806 170.651C286.505 171.128 287.396 171.366 288.478 171.366ZM310.7 174.396C308.8 174.396 307.163 173.966 305.791 173.105C304.428 172.236 303.379 171.038 302.646 169.513C301.913 167.987 301.547 166.24 301.547 164.271C301.547 162.277 301.922 160.517 302.672 158.991C303.422 157.457 304.479 156.26 305.842 155.399C307.206 154.538 308.813 154.108 310.662 154.108C312.153 154.108 313.483 154.385 314.651 154.939C315.818 155.484 316.76 156.251 317.476 157.24C318.2 158.229 318.631 159.384 318.767 160.705H315.047C314.842 159.784 314.374 158.991 313.641 158.327C312.916 157.662 311.945 157.33 310.726 157.33C309.661 157.33 308.727 157.611 307.926 158.173C307.134 158.727 306.516 159.52 306.072 160.551C305.629 161.574 305.408 162.784 305.408 164.182C305.408 165.614 305.625 166.849 306.06 167.889C306.494 168.929 307.108 169.734 307.901 170.305C308.702 170.876 309.643 171.162 310.726 171.162C311.45 171.162 312.107 171.03 312.695 170.766C313.291 170.493 313.79 170.105 314.19 169.602C314.599 169.099 314.885 168.494 315.047 167.787H318.767C318.631 169.057 318.217 170.19 317.527 171.188C316.837 172.185 315.912 172.969 314.753 173.54C313.602 174.111 312.251 174.396 310.7 174.396ZM326.37 167.339L326.345 162.673H327.01L334.833 154.364H339.41L330.487 163.824H329.886L326.37 167.339ZM322.855 174V147.818H326.677V174H322.855ZM335.255 174L328.224 164.668L330.858 161.996L339.947 174H335.255ZM350.548 174.396C348.614 174.396 346.947 173.983 345.55 173.156C344.161 172.321 343.087 171.149 342.328 169.641C341.578 168.124 341.203 166.347 341.203 164.31C341.203 162.298 341.578 160.526 342.328 158.991C343.087 157.457 344.143 156.26 345.499 155.399C346.862 154.538 348.456 154.108 350.28 154.108C351.388 154.108 352.462 154.291 353.501 154.658C354.541 155.024 355.474 155.599 356.301 156.384C357.128 157.168 357.78 158.186 358.257 159.439C358.734 160.683 358.973 162.196 358.973 163.977V165.332H343.364V162.469H355.227C355.227 161.463 355.023 160.572 354.614 159.797C354.205 159.013 353.629 158.395 352.888 157.943C352.155 157.491 351.294 157.266 350.305 157.266C349.232 157.266 348.294 157.53 347.493 158.058C346.7 158.578 346.087 159.26 345.652 160.104C345.226 160.939 345.013 161.847 345.013 162.827V165.064C345.013 166.376 345.243 167.493 345.703 168.413C346.172 169.334 346.824 170.037 347.659 170.523C348.494 171 349.47 171.239 350.587 171.239C351.311 171.239 351.972 171.136 352.568 170.932C353.165 170.719 353.68 170.403 354.115 169.986C354.55 169.568 354.882 169.053 355.112 168.439L358.73 169.091C358.44 170.156 357.92 171.089 357.17 171.891C356.429 172.683 355.496 173.301 354.371 173.744C353.254 174.179 351.98 174.396 350.548 174.396ZM367.037 162.341V174H363.214V154.364H366.883V157.56H367.126C367.578 156.52 368.285 155.685 369.248 155.054C370.22 154.423 371.443 154.108 372.917 154.108C374.255 154.108 375.427 154.389 376.433 154.952C377.439 155.506 378.218 156.332 378.772 157.432C379.326 158.531 379.603 159.891 379.603 161.51V174H375.781V161.97C375.781 160.547 375.41 159.435 374.669 158.634C373.927 157.824 372.909 157.419 371.613 157.419C370.727 157.419 369.939 157.611 369.248 157.994C368.566 158.378 368.025 158.94 367.625 159.682C367.233 160.415 367.037 161.301 367.037 162.341ZM392.081 174.384C390.495 174.384 389.081 173.979 387.836 173.169C386.6 172.351 385.629 171.187 384.922 169.679C384.223 168.162 383.873 166.342 383.873 164.22C383.873 162.098 384.227 160.283 384.934 158.774C385.65 157.266 386.63 156.111 387.875 155.31C389.119 154.509 390.529 154.108 392.106 154.108C393.325 154.108 394.305 154.312 395.047 154.722C395.797 155.122 396.376 155.591 396.785 156.128C397.203 156.665 397.527 157.138 397.757 157.547H397.987V147.818H401.809V174H398.076V170.945H397.757C397.527 171.362 397.194 171.839 396.76 172.376C396.333 172.913 395.745 173.382 394.995 173.783C394.245 174.183 393.274 174.384 392.081 174.384ZM392.924 171.124C394.024 171.124 394.953 170.834 395.711 170.254C396.478 169.666 397.058 168.852 397.45 167.812C397.85 166.773 398.051 165.562 398.051 164.182C398.051 162.818 397.855 161.625 397.463 160.602C397.071 159.58 396.495 158.783 395.737 158.212C394.978 157.641 394.041 157.355 392.924 157.355C391.774 157.355 390.815 157.653 390.048 158.25C389.281 158.847 388.701 159.661 388.309 160.692C387.926 161.723 387.734 162.886 387.734 164.182C387.734 165.494 387.93 166.675 388.322 167.723C388.714 168.771 389.294 169.602 390.061 170.216C390.836 170.821 391.791 171.124 392.924 171.124ZM419.311 174.243C418.612 174.243 418.011 173.996 417.508 173.501C417.005 172.999 416.754 172.393 416.754 171.686C416.754 170.987 417.005 170.391 417.508 169.896C418.011 169.393 418.612 169.142 419.311 169.142C420.01 169.142 420.61 169.393 421.113 169.896C421.616 170.391 421.868 170.987 421.868 171.686C421.868 172.155 421.748 172.585 421.51 172.977C421.279 173.361 420.973 173.668 420.589 173.898C420.206 174.128 419.779 174.243 419.311 174.243ZM448.426 147.818V174H444.796L431.488 154.798H431.245V174H427.294V147.818H430.951L444.272 167.045H444.515V147.818H448.426ZM454.189 174V147.818H470.604V151.219H458.139V159.196H469.747V162.584H458.139V170.599H470.757V174H454.189ZM474.589 151.219V147.818H494.852V151.219H486.683V174H482.745V151.219H474.589ZM523.137 154.696C523 153.486 522.438 152.548 521.449 151.884C520.461 151.21 519.216 150.874 517.716 150.874C516.642 150.874 515.713 151.044 514.929 151.385C514.145 151.717 513.536 152.178 513.101 152.766C512.675 153.345 512.462 154.006 512.462 154.747C512.462 155.369 512.607 155.906 512.897 156.358C513.195 156.81 513.583 157.189 514.06 157.496C514.546 157.794 515.066 158.045 515.62 158.25C516.174 158.446 516.706 158.608 517.218 158.736L519.775 159.401C520.61 159.605 521.466 159.882 522.344 160.232C523.222 160.581 524.036 161.041 524.786 161.612C525.536 162.183 526.141 162.891 526.601 163.734C527.07 164.578 527.304 165.588 527.304 166.764C527.304 168.247 526.921 169.564 526.154 170.714C525.395 171.865 524.292 172.773 522.843 173.438C521.402 174.102 519.659 174.435 517.614 174.435C515.654 174.435 513.958 174.124 512.526 173.501C511.094 172.879 509.973 171.997 509.164 170.855C508.354 169.705 507.907 168.341 507.821 166.764H511.784C511.861 167.71 512.168 168.499 512.705 169.129C513.25 169.751 513.945 170.216 514.789 170.523C515.641 170.821 516.574 170.97 517.588 170.97C518.705 170.97 519.698 170.795 520.567 170.446C521.445 170.088 522.135 169.594 522.638 168.963C523.141 168.324 523.392 167.578 523.392 166.726C523.392 165.95 523.171 165.315 522.728 164.821C522.293 164.327 521.701 163.918 520.951 163.594C520.209 163.27 519.37 162.984 518.432 162.737L515.338 161.893C513.242 161.322 511.58 160.483 510.353 159.375C509.134 158.267 508.525 156.801 508.525 154.977C508.525 153.469 508.934 152.152 509.752 151.027C510.57 149.902 511.678 149.028 513.076 148.406C514.473 147.776 516.05 147.46 517.806 147.46C519.578 147.46 521.142 147.771 522.498 148.393C523.861 149.016 524.935 149.872 525.719 150.963C526.503 152.045 526.912 153.29 526.946 154.696H523.137ZM540.501 174H532.025V147.818H540.769C543.335 147.818 545.538 148.342 547.379 149.391C549.219 150.43 550.63 151.926 551.61 153.878C552.599 155.821 553.093 158.152 553.093 160.871C553.093 163.598 552.594 165.942 551.597 167.902C550.609 169.862 549.177 171.371 547.302 172.428C545.427 173.476 543.16 174 540.501 174ZM535.975 170.548H540.283C542.278 170.548 543.935 170.173 545.256 169.423C546.577 168.665 547.566 167.57 548.222 166.138C548.879 164.697 549.207 162.942 549.207 160.871C549.207 158.817 548.879 157.074 548.222 155.642C547.575 154.21 546.607 153.124 545.32 152.382C544.033 151.641 542.435 151.27 540.526 151.27H535.975V170.548ZM558.005 174V147.818H561.956V160.321H562.275L573.257 147.818H578.23L567.67 159.605L578.268 174H573.512L565.049 162.303L561.956 165.857V174H558.005Z" fill="#FCFCFC"/>
<g clip-path="url(#clip4_3409_5017)">
<path d="M1040.13 46.1636C1038.98 43.5454 1036.75 44.9272 1035.4 46.7454L1033.49 50.0545L1046.18 71.9999H1055L1040.13 46.1636Z" fill="url(#paint0_linear_3409_5017)"/>
<path d="M1024.13 42.8182C1022 40.2364 1017.87 39.2909 1014.78 40.7819C1013.29 41.4728 1012.05 42.5455 1011.18 44.0364C1011.18 44.0546 995 72 995 72H1004.05L1018.09 48.0182L1019.25 46C1019.47 45.6364 1021.93 41.5091 1024.13 42.8182Z" fill="url(#paint1_linear_3409_5017)"/>
<path d="M1013.84 67.4726C1014.33 68.2545 1018.11 75.1272 1018.67 75.5999C1020.96 76.5999 1022.53 72.7454 1023.49 71.2363L1017.64 61.0908L1013.84 67.4726Z" fill="url(#paint2_linear_3409_5017)"/>
<path d="M1031.96 61.0908L1025.33 72.5999C1025.33 72.5999 1022.47 78.6908 1019.87 77.5454C1021.31 79.1635 1023.44 80.0726 1025.6 79.9999C1028.09 79.8908 1030.38 78.5454 1031.65 76.3454L1036.27 68.3272C1036.22 68.2363 1032.02 61.1635 1031.96 61.0908Z" fill="url(#paint3_linear_3409_5017)"/>
<path d="M1037.8 42.5999C1035.47 39.8908 1031.24 39.1818 1028.18 41.0363C1025.29 42.4908 1022.4 49.5454 1020.62 52.1272C1020.65 52.1999 1025.04 59.7636 1025.07 59.8363C1026.71 56.9999 1030.45 50.509 1032.05 47.7454C1033.16 45.9272 1035.07 41.2908 1037.8 42.5999Z" fill="url(#paint4_linear_3409_5017)"/>
<path d="M1024.76 44.8545C1023.15 47.4364 1021.67 50.6 1020.62 52.1273L1019.38 50C1020.16 48.5454 1022.62 44.0364 1024.76 44.8545Z" fill="url(#paint5_linear_3409_5017)"/>
<path d="M1085.45 54.3093C1084.31 54.2911 1083.18 54.5456 1082.16 55.0547C1081.15 55.5638 1080.25 56.3274 1079.6 57.2547C1078.96 56.3274 1078.09 55.582 1077.09 55.0729C1076.09 54.5638 1074.96 54.3093 1073.84 54.3274C1069.35 54.3274 1066.29 57.9456 1066.29 63.3093V71.982H1069.75V63.3093C1069.75 59.8184 1071.29 57.7456 1073.87 57.7456C1076.45 57.7456 1077.93 59.8911 1077.93 63.3093V71.982H1081.2V63.3093C1081.2 59.8184 1082.75 57.7456 1085.35 57.7456C1087.95 57.7456 1089.38 59.8911 1089.38 63.3093V71.982H1092.84V63.3093C1092.85 57.9274 1089.89 54.3093 1085.45 54.3093Z" fill="white"/>
<path d="M1103.62 54.0183C1098.64 54.0183 1095 57.8001 1095 63.0001C1095 68.2001 1098.62 71.9819 1103.62 71.9819C1108.62 71.9819 1112.24 68.2001 1112.24 63.0001C1112.24 57.8001 1108.58 54.0183 1103.62 54.0183ZM1103.62 68.5638C1100.56 68.5638 1098.44 66.291 1098.44 63.0001C1098.44 59.7092 1100.51 57.4365 1103.62 57.4365C1106.71 57.4365 1108.76 59.6729 1108.76 63.0001C1108.76 66.3274 1106.64 68.5638 1103.62 68.5638Z" fill="white"/>
<path d="M1122.4 54.3093C1117.87 54.3093 1114.45 58.1639 1114.45 63.2911V71.9639H1117.91V63.2911C1117.91 60.073 1119.76 57.7275 1122.42 57.7275C1125.07 57.7275 1126.82 60.073 1126.82 63.2911V71.9639H1130.27V63.2911C1130.31 58.1821 1126.91 54.3093 1122.4 54.3093Z" fill="white"/>
<path d="M1141 54.0183C1136.02 54.0183 1132.38 57.8001 1132.38 63.0001C1132.38 68.2001 1136 72.0001 1141 72.0001C1146 72.0001 1149.56 68.2183 1149.56 63.0183C1149.56 57.8183 1145.96 54.0183 1141 54.0183ZM1141 68.5638C1137.95 68.5638 1135.82 66.291 1135.82 63.0001C1135.82 59.7092 1137.91 57.4365 1141 57.4365C1144.09 57.4365 1146.15 59.6729 1146.15 63.0001C1146.15 66.3274 1144.04 68.5638 1141 68.5638Z" fill="white"/>
<path d="M1160.51 68.5273C1159.8 68.5273 1159.09 68.4 1158.44 68.1091C1157.78 67.8364 1157.18 67.4182 1156.69 66.9091C1156.2 66.4 1155.82 65.7819 1155.56 65.1091C1155.31 64.4364 1155.22 63.7273 1155.25 63.0182C1155.22 62.3091 1155.31 61.6 1155.56 60.9273C1155.82 60.2546 1156.18 59.6364 1156.69 59.1273C1157.18 58.6182 1157.78 58.2 1158.44 57.9273C1159.09 57.6546 1159.8 57.5091 1160.51 57.5091C1161.55 57.4364 1162.58 57.7091 1163.44 58.2909C1164.29 58.8728 1164.95 59.7273 1165.25 60.7091H1168.8C1168.45 58.8 1167.42 57.0728 1165.89 55.8728C1164.36 54.6728 1162.45 54.0546 1160.51 54.1455C1159.35 54.1273 1158.2 54.3455 1157.11 54.8C1156.04 55.2364 1155.05 55.9091 1154.25 56.7455C1153.45 57.5819 1152.82 58.5637 1152.4 59.6546C1151.98 60.7455 1151.8 61.8909 1151.85 63.0546C1151.82 64.2182 1152 65.3637 1152.42 66.4546C1152.84 67.5273 1153.45 68.5273 1154.27 69.3455C1155.07 70.1819 1156.05 70.8364 1157.13 71.291C1158.2 71.7455 1159.35 71.9637 1160.51 71.9637C1162.51 72.0364 1164.45 71.3819 1165.98 70.1091C1167.53 68.8364 1168.55 67.0546 1168.85 65.091H1165.35C1165.05 66.1273 1164.42 67.0364 1163.55 67.6728C1162.65 68.2728 1161.6 68.5819 1160.51 68.5273Z" fill="white"/>
<path d="M1174.45 48.3455H1171.18V71.8H1174.45V48.3455Z" fill="white"/>
<path d="M1185.33 54.0183C1180.35 54.0183 1176.71 57.8001 1176.71 63.0001C1176.71 68.2001 1180.33 71.9819 1185.33 71.9819C1190.33 71.9819 1193.89 68.2001 1193.89 63.0001C1193.89 57.8001 1190.29 54.0183 1185.33 54.0183ZM1185.33 68.5638C1182.27 68.5638 1180.15 66.291 1180.15 63.0001C1180.15 59.7092 1182.22 57.4365 1185.33 57.4365C1188.42 57.4365 1190.53 59.691 1190.53 63.0001C1190.53 66.3092 1188.36 68.5638 1185.33 68.5638Z" fill="white"/>
<path d="M1208.64 63.0182C1208.64 66.2364 1206.69 68.5818 1204.15 68.5818C1201.6 68.5818 1199.55 66.2546 1199.55 63.0182V54.3455H1196.09V63.0182C1196.09 68.1273 1199.53 72 1204.07 72C1208.64 72 1211.91 68.1273 1211.91 63.0182V54.3455H1208.64V63.0182Z" fill="white"/>
<path d="M1227.91 47.9819V55.9638C1226.42 54.6365 1224.49 53.891 1222.47 53.9092C1217.65 53.9092 1214.04 57.7638 1214.04 62.891C1214.04 68.0183 1217.67 71.8728 1222.67 71.8728C1227.67 71.8728 1231.36 68.091 1231.36 62.891V47.9819H1227.91ZM1222.65 68.5638C1219.13 68.5638 1217.51 65.691 1217.51 63.0001C1217.45 62.291 1217.55 61.5819 1217.78 60.9092C1218.02 60.2365 1218.38 59.6183 1218.87 59.091C1219.36 58.5638 1219.95 58.1456 1220.6 57.8728C1221.25 57.5819 1221.96 57.4365 1222.67 57.4365C1223.38 57.4365 1224.09 57.5819 1224.75 57.8728C1225.4 58.1638 1225.98 58.5819 1226.47 59.091C1226.96 59.6183 1227.33 60.2365 1227.56 60.9092C1227.8 61.5819 1227.89 62.291 1227.84 63.0001C1227.84 65.7638 1226.24 68.5638 1222.65 68.5638Z" fill="white"/>
</g>
</g>
<defs>
<filter id="filter0_f_3409_5017" x="-88.7161" y="-375.049" width="1589.68" height="975.591" filterUnits="userSpaceOnUse" color-interpolation-filters="sRGB">
<feFlood flood-opacity="0" result="BackgroundImageFix"/>
<feBlend mode="normal" in="SourceGraphic" in2="BackgroundImageFix" result="shape"/>
<feGaussianBlur stdDeviation="150" result="effect1_foregroundBlur_3409_5017"/>
</filter>
<filter id="filter1_f_3409_5017" x="608" y="-57" width="1238" height="1128" filterUnits="userSpaceOnUse" color-interpolation-filters="sRGB">
<feFlood flood-opacity="0" result="BackgroundImageFix"/>
<feBlend mode="normal" in="SourceGraphic" in2="BackgroundImageFix" result="shape"/>
<feGaussianBlur stdDeviation="110" result="effect1_foregroundBlur_3409_5017"/>
</filter>
<filter id="filter2_f_3409_5017" x="-800" y="-800" width="1234" height="1234" filterUnits="userSpaceOnUse" color-interpolation-filters="sRGB">
<feFlood flood-opacity="0" result="BackgroundImageFix"/>
<feBlend mode="normal" in="SourceGraphic" in2="BackgroundImageFix" result="shape"/>
<feGaussianBlur stdDeviation="125" result="effect1_foregroundBlur_3409_5017"/>
</filter>
<linearGradient id="paint0_linear_3409_5017" x1="1023.23" y1="59.6691" x2="1071.37" y2="56.9646" gradientUnits="userSpaceOnUse">
<stop stop-color="#0586FD"/>
<stop offset="0.88" stop-color="#111FFF"/>
</linearGradient>
<linearGradient id="paint1_linear_3409_5017" x1="990.031" y1="84.2775" x2="1042.16" y2="7.1637" gradientUnits="userSpaceOnUse">
<stop stop-color="#0586FD"/>
<stop offset="0.88" stop-color="#111FFF"/>
</linearGradient>
<linearGradient id="paint2_linear_3409_5017" x1="992.557" y1="90.2186" x2="1061.97" y2="32.7357" gradientUnits="userSpaceOnUse">
<stop stop-color="#0586FD"/>
<stop offset="0.88" stop-color="#111FFF"/>
</linearGradient>
<linearGradient id="paint3_linear_3409_5017" x1="1006.62" y1="91.7521" x2="1058.09" y2="45.1592" gradientUnits="userSpaceOnUse">
<stop stop-color="#0586FD"/>
<stop offset="0.88" stop-color="#111FFF"/>
</linearGradient>
<linearGradient id="paint4_linear_3409_5017" x1="1021.11" y1="63.3361" x2="1040.6" y2="24.9081" gradientUnits="userSpaceOnUse">
<stop stop-color="#0586FD"/>
<stop offset="0.88" stop-color="#111FFF"/>
</linearGradient>
<linearGradient id="paint5_linear_3409_5017" x1="965.111" y1="89.4961" x2="1058.67" y2="22.0914" gradientUnits="userSpaceOnUse">
<stop stop-color="#0586FD"/>
<stop offset="0.88" stop-color="#111FFF"/>
</linearGradient>
<clipPath id="clip0_3409_5017">
<path d="M0 20C0 8.9543 8.95431 0 20 0H1260C1271.05 0 1280 8.95431 1280 20V205C1280 216.046 1271.05 225 1260 225H20C8.95431 225 0 216.046 0 205V20Z" fill="white"/>
</clipPath>
<clipPath id="clip1_3409_5017">
<path d="M48 57C48 50.3726 53.3726 45 60 45H116C122.627 45 128 50.3726 128 57V113C128 119.627 122.627 125 116 125H60C53.3726 125 48 119.627 48 113V57Z" fill="white"/>
</clipPath>
<clipPath id="clip2_3409_5017">
<rect width="80" height="80" fill="white" transform="translate(48 45)"/>
</clipPath>
<clipPath id="clip3_3409_5017">
<path d="M48 85C48 62.9086 65.9086 45 88 45V45C110.091 45 128 62.9086 128 85V85C128 107.091 110.091 125 88 125V125C65.9086 125 48 107.091 48 85V85Z" fill="white"/>
</clipPath>
<clipPath id="clip4_3409_5017">
<rect width="236.364" height="40" fill="white" transform="translate(995 40)"/>
</clipPath>
</defs>
</svg>
